<?xml version="1.0" encoding="utf-8"?>
<!-- Generator: Adobe Illustrator 23.0.0, SVG Export Plug-In . SVG Version: 6.00 Build 0)  -->
<svg version="1.1" id="Layer_1" xmlns="http://www.w3.org/2000/svg" xmlns:xlink="http://www.w3.org/1999/xlink" x="0px" y="0px"
	 viewBox="0 0 2362.3 439.2" style="enable-background:new 0 0 2362.3 439.2;" xml:space="preserve">
<style type="text/css">
	.st0{fill-rule:evenodd;clip-rule:evenodd;fill:#FFFFFF;}
</style>
<g id="Ebene_1">
	<path class="st0" d="M2193.2,241.3c2.3,44.7,29.8,64.3,66.1,64.3c32.1,0,50.8-10.7,69.4-28.9l30.3,29.8
		c-25.6,28.4-59.6,44.7-103.9,44.7c-61.9,0-119.2-37.7-119.2-128.5c0-94.1,66.6-128.6,117.8-128.6c55.4,0,108.5,33.1,108.5,133.7
		v13.5L2193.2,241.3L2193.2,241.3z M2253.3,140.7c-27.9,0-53.6,15.8-59.2,57.8h115.5C2306.4,160.7,2287.8,140.7,2253.3,140.7z
		 M1983.4,346.5L1894,98.7h60.1l60.6,182.6h0.9l60.1-182.6h55.4l-89.4,247.8H1983.4z M1807.1,6.1h58.7v49.8h-58.7V6.1z M1768,274.8
		c0,52.2-47,76.4-103.4,76.4c-45.6,0-86.6-16.3-109-39.1l31.2-34.9c18.6,15.8,46.1,29.3,77.8,29.3c30.7,0,49.4-7.9,49.4-28.4
		c0-20-25.1-26.1-55-33.1c-42.4-9.8-93.2-21-93.2-78.3c0-43.3,37.3-72.7,91.8-72.7c47,0,75.9,13.5,101.5,34.9l-27.5,37.3
		c-18.2-14.9-47.5-27-69.9-27c-31.7,0-41.9,11.2-41.9,25.2c0,20,24.7,26.1,54,32.6C1716.3,206.3,1768,217.1,1768,274.8z M1465.7,183
		c0-27.5-11.6-40.1-36.8-40.1c-25.1,0-46.1,13-67.1,32.1v170.9h-57.8V98.7h57.8v33.5c15.8-16.8,45.6-38.2,90.4-38.2
		c43.3,0,71.3,25.6,71.3,74.5v177.5h-57.8L1465.7,183L1465.7,183z M1143.2,351.2c-60.1,0-120.6-38.2-120.6-128.5
		c0-91.3,60.1-128.6,120.6-128.6c60.1,0,120.6,37.3,120.6,128.6C1263.9,313,1203.3,351.2,1143.2,351.2z M1143.2,143
		c-41.5,0-62.9,29.8-62.9,79.6c0,47,19.1,80.6,62.9,80.6c41.5,0,62.9-29.8,62.9-80.6C1206.1,176.5,1186.6,143,1143.2,143z
		 M888.3,349.8c-26.5,0-52.6-10.7-70.8-31.2v120.6h-57.3V98.7h57.3v32.6c16.3-19.6,41.9-37.3,78.7-37.3c56.4,0,97.8,42.4,97.8,128.1
		C994,307.9,951.7,349.8,888.3,349.8z M877.6,143c-23.8,0-46.6,14.9-60.1,31.2v99.2c15.4,20,37.7,30.7,58.2,30.7
		c43.3,0,61-26.5,61-81.5C936.8,170.5,914.4,143,877.6,143z M679.8,345.5l-52.7-80.4c-15.7,53.4-60.1,80.7-116.7,80.7h-0.2v-50.8h3
		c51.2,0,80.5-33.9,80.5-73.5c0-38.2-29.2-72.6-80.9-72.6h-2.5V95.9h2c59.7,0,101.2,28.3,115.5,80.5L677,98.2h59.2l-81,119.7
		l85.7,127.6H679.8z M338.6,234.5c6.4,32.1,29.6,60.6,72.6,60.6h63.3v50.8H414c-7.4,0-14.7-0.5-21.9-1.6
		c-59.8-2.2-113.7-40.3-113.7-128.4c0-94.1,66.6-128.6,117.8-128.6c55.4,0,108.5,33.1,108.5,133.7v13.5h-30.1L338.6,234.5
		L338.6,234.5z M395.8,133.9c-27.9,0-53.6,15.8-59.1,57.8h115.5C448.9,153.9,430.3,133.9,395.8,133.9z M186.9,1.4h57.8v344.7h-57.8
		V1.4z M137.4,44.7c-20.5,0-37.3,5.6-37.3,32.1v21.9h54v45.6h-54v201.7H42.9V144.4H0V98.7h42.9V73.6C42.9,32.1,60.1,0,123,0
		c10.7,0,29.8,1.9,34,2.3v44.2C153.2,45.6,143.9,44.7,137.4,44.7z M1865.3,346.1h-57.8V98.7h57.8V346.1z"/>
</g>
<g id="Ebene_2">
</g>
</svg>
